HIERARCHY
ROOT Hips
{
	OFFSET 0.000000 0.000000 0.000000
	CHANNELS 6 Xposition Yposition Zposition Xrotation Yrotation Zrotation
	JOINT LeftUpLeg_virtual
	{
		OFFSET 0.000000 0.000000 0.000000
		CHANNELS 3 Xrotation Yrotation Zrotation
		JOINT LeftUpLeg
		{
			OFFSET 10.205400 -3.823500 0.155100
			CHANNELS 3 Xrotation Yrotation Zrotation
			JOINT LeftLeg
			{
				OFFSET 0.708757 -12.982077 0.567790
				CHANNELS 3 Xrotation Yrotation Zrotation
				JOINT LeftFoot
				{
					OFFSET -0.708756 -10.717838 -2.184338
					CHANNELS 3 Xrotation Yrotation Zrotation
					JOINT LeftToeBase
					{
						OFFSET 0.108149 -7.191104 7.560241
						CHANNELS 3 Xrotation Yrotation Zrotation
						JOINT LeftToe_End
						{
							OFFSET 0.070230 0.081724 4.490308
							CHANNELS 3 Xrotation Yrotation Zrotation
							End Site
							{
								OFFSET 0 0 0
							}
						}
					}
				}
			}
		}
	}
	JOINT RightUpLeg_virtual
	{
		OFFSET 0.000000 0.000000 0.000000
		CHANNELS 3 Xrotation Yrotation Zrotation
		JOINT RightUpLeg
		{
			OFFSET -10.205400 -3.823500 0.005500
			CHANNELS 3 Xrotation Yrotation Zrotation
			JOINT RightLeg
			{
				OFFSET -0.708756 -12.982134 0.610632
				CHANNELS 3 Xrotation Yrotation Zrotation
				JOINT RightFoot
				{
					OFFSET 0.708754 -10.717769 -1.945823
					CHANNELS 3 Xrotation Yrotation Zrotation
					JOINT RightToeBase
					{
						OFFSET -0.108140 -7.191069 7.372968
						CHANNELS 3 Xrotation Yrotation Zrotation
						JOINT RightToe_End
						{
							OFFSET -0.070227 0.081735 4.479403
							CHANNELS 3 Xrotation Yrotation Zrotation
							End Site
							{
								OFFSET 0 0 0
							}
						}
					}
				}
			}
		}
	}
	JOINT Spine_virtual
	{
		OFFSET 0.000000 0.000000 0.000000
		CHANNELS 3 Xrotation Yrotation Zrotation
		JOINT Spine
		{
			OFFSET 0.000000 6.876099 0.125700
			CHANNELS 3 Xrotation Yrotation Zrotation
			JOINT Spine1
			{
				OFFSET 0.000000 5.730043 0.104720
				CHANNELS 3 Xrotation Yrotation Zrotation
				JOINT Spine1_split
				{
					OFFSET 0.000000 5.730043 0.104720
					CHANNELS 3 Xrotation Yrotation Zrotation
					JOINT Spine2
					{
						OFFSET 0.000000 5.730043 0.104720
						CHANNELS 3 Xrotation Yrotation Zrotation
						JOINT Neck_virtual
						{
							OFFSET 0.000000 0.000000 0.000000
							CHANNELS 3 Xrotation Yrotation Zrotation
							JOINT Neck
							{
								OFFSET 0.000000 10.314075 0.188496
								CHANNELS 3 Xrotation Yrotation Zrotation
								JOINT Head
								{
									OFFSET 0.000000 7.643700 -2.377400
									CHANNELS 3 Xrotation Yrotation Zrotation
									JOINT HeadTop_End
									{
										OFFSET 0.000000 43.788605 -13.619600
										CHANNELS 3 Xrotation Yrotation Zrotation
										End Site
										{
											OFFSET 0 0 0
										}
									}
								}
							}
						}
						JOINT LeftShoulder_virtual
						{
							OFFSET 0.000000 0.000000 0.000000
							CHANNELS 3 Xrotation Yrotation Zrotation
							JOINT LeftShoulder
							{
								OFFSET 2.196100 4.412489 0.087492
								CHANNELS 3 Xrotation Yrotation Zrotation
								JOINT LeftShoulder_split
								{
									OFFSET 2.196100 4.412489 0.087492
									CHANNELS 3 Xrotation Yrotation Zrotation
									JOINT LeftArm
									{
										OFFSET 8.771219 -2.981674 -0.026999
										CHANNELS 3 Xrotation Yrotation Zrotation
										JOINT LeftForeArm
										{
											OFFSET 8.512804 0.000000 -0.000000
											CHANNELS 3 Xrotation Yrotation Zrotation
											JOINT LeftHand
											{
												OFFSET 18.484802 0.000000 -0.000000
												CHANNELS 3 Xrotation Yrotation Zrotation
												End Site
												{
													OFFSET 0 0 0
												}
											}
										}
									}
								}
							}
						}
						JOINT RightShoulder_virtual
						{
							OFFSET 0.000000 0.000000 0.000000
							CHANNELS 3 Xrotation Yrotation Zrotation
							JOINT RightShoulder
							{
								OFFSET -2.196100 4.412496 0.070690
								CHANNELS 3 Xrotation Yrotation Zrotation
								JOINT RightShoulder_split
								{
									OFFSET -2.196100 4.412496 0.070690
									CHANNELS 3 Xrotation Yrotation Zrotation
									JOINT RightArm
									{
										OFFSET -8.771282 -2.981682 -0.094208
										CHANNELS 3 Xrotation Yrotation Zrotation
										JOINT RightForeArm
										{
											OFFSET -8.494598 0.000000 0.000000
											CHANNELS 3 Xrotation Yrotation Zrotation
											JOINT RightHand
											{
												OFFSET -18.483803 0.000000 0.000001
												CHANNELS 3 Xrotation Yrotation Zrotation
												End Site
												{
													OFFSET 0 0 0
												}
											}
										}
									}
								}
							}
						}
					}
				}
			}
		}
	}
}
MOTION
Frames: 10
Frame Time: 0.03333333
2.916721 30.197071 0.087429 0.000000 0.000000 0.000000 5.964666 -13.858780 -1.566838 -34.266748 2.594006 16.002616 53.439263 10.047617 -1.681402 -22.450475 7.308267 -14.221144 -1.989826 -1.911747 -2.684231 0.000000 0.000000 0.000000 5.440725 -10.971166 -0.857658 -15.637430 -6.449405 -17.437729 47.460529 -8.258747 -6.444102 -22.189514 -2.111223 16.690792 -16.989602 -8.555838 10.714504 0.000000 0.000000 0.000000 6.256150 -8.924081 -0.187681 13.027611 2.287732 -2.325082 8.200957 6.421142 -2.532059 0.098175 -1.489722 1.015464 0.000000 0.000000 0.000000 -1.729668 6.034975 -0.753670 -5.563506 0.929580 0.028296 -7.957658 8.106074 6.072181 0.000000 0.000000 0.000000 -3.305704 6.039567 -0.837217 -2.283349 0.513607 -2.971810 1.275864 -1.305471 1.125576 -13.552700 1.421611 -55.195257 -12.846794 -31.993190 -5.114278 0.000000 0.000000 0.000000 -3.844523 5.289879 -0.869285 5.303130 -9.426008 9.635522 1.360968 -2.426844 -3.005774 24.938856 58.099973 23.193963 16.193614 29.399801 5.053357 0.000000 0.000000 0.000000 
2.894748 30.516026 0.066071 0.000000 0.000000 0.000000 6.298102 -13.766415 -2.067081 -33.578436 2.209303 16.363088 50.597229 10.059896 -1.248945 -21.026674 6.795374 -13.834536 -2.078440 -1.949885 -2.951537 0.000000 0.000000 0.000000 5.564173 -11.229178 -1.437927 -15.526089 -6.685202 -15.625390 43.084563 -5.536329 -6.073032 -21.930578 -0.792662 17.068537 -14.700847 -6.508032 7.775419 0.000000 0.000000 0.000000 6.457896 -8.797766 -0.540800 13.119328 2.513030 -2.004413 7.823697 6.459304 -2.408735 -0.019183 -1.708126 0.929994 0.000000 0.000000 0.000000 -2.067740 5.979405 -0.541772 -5.760745 0.961455 -0.123309 -7.577280 7.606365 6.665476 0.000000 0.000000 0.000000 -3.680174 6.004587 -0.799178 -2.254716 1.244278 -3.311582 1.444490 -1.494997 1.337163 -13.483050 1.765197 -55.257935 -12.040757 -30.798791 -4.347931 0.000000 0.000000 0.000000 -4.157411 5.302584 -0.727424 4.842803 -8.045836 9.325863 1.051006 -2.401690 -3.597852 17.111331 54.472500 29.378071 15.195771 26.468074 6.853452 0.000000 0.000000 0.000000 
2.882346 30.845457 0.062040 0.000000 0.000000 0.000000 6.426525 -13.832902 -2.513506 -32.765340 2.000096 16.683133 48.122378 9.949925 -0.950343 -19.828256 6.343062 -13.154477 -2.008139 -1.997514 -3.162308 0.000000 0.000000 0.000000 5.528382 -11.494659 -1.981036 -14.452038 -6.566140 -13.881357 37.752098 -3.630591 -5.695925 -21.990407 -0.557485 17.077858 -12.047905 -4.997974 5.807294 0.000000 0.000000 0.000000 6.428124 -8.787526 -0.900793 13.215139 2.738802 -1.626632 7.430301 6.467922 -2.327992 0.036766 -1.987567 0.885524 0.000000 0.000000 0.000000 -2.463837 5.905718 -0.398826 -5.940539 1.021562 -0.260098 -7.065559 6.964632 7.360305 0.000000 0.000000 0.000000 -4.051043 5.941358 -0.819668 -2.199919 1.950076 -3.617557 1.501677 -1.657506 1.383232 -13.387639 2.272924 -55.418232 -11.262666 -29.578308 -3.615342 0.000000 0.000000 0.000000 -4.468828 5.299530 -0.648938 4.280468 -6.785638 8.849138 0.605898 -2.291470 -3.716231 10.929719 49.753065 35.383146 15.214882 24.275653 7.040384 0.000000 0.000000 0.000000 
2.890492 31.140572 0.078459 0.000000 0.000000 0.000000 6.295460 -13.917766 -2.887391 -31.841051 2.020451 16.809862 46.165822 9.786742 -0.781457 -19.063557 6.137141 -12.288461 -1.805389 -2.020599 -3.294765 0.000000 0.000000 0.000000 5.314251 -11.565348 -2.459815 -12.819702 -6.018690 -12.342892 32.329242 -2.403282 -5.467987 -22.374045 -1.133288 16.837642 -9.373604 -4.080770 5.002507 0.000000 0.000000 0.000000 6.078194 -8.846887 -1.221172 13.322618 2.885532 -1.255880 7.048997 6.442790 -2.247663 0.243638 -2.167708 0.900101 0.000000 0.000000 0.000000 -2.904831 5.814961 -0.288786 -6.024458 1.071619 -0.436862 -6.489398 6.186812 8.148416 0.000000 0.000000 0.000000 -4.415226 5.853584 -0.839669 -2.129165 2.574180 -3.817686 1.441221 -1.905197 1.408109 -13.236125 2.733087 -55.671021 -10.535292 -28.465527 -2.924713 0.000000 0.000000 0.000000 -4.774831 5.281519 -0.576343 3.668665 -5.647282 8.363843 0.081422 -2.321830 -3.457506 6.665895 44.580317 40.950867 15.815204 22.720558 6.080514 0.000000 0.000000 0.000000 
2.904589 31.396278 0.120859 0.000000 0.000000 0.000000 5.960477 -13.857592 -3.129630 -30.780148 2.247938 16.716152 44.575092 9.591542 -0.703007 -18.653107 6.183285 -11.547427 -1.757862 -2.006123 -3.279518 0.000000 0.000000 0.000000 4.973560 -11.353391 -2.790693 -11.078125 -5.177692 -11.226828 27.776713 -1.684035 -5.442113 -22.930048 -2.100672 16.543656 -7.052611 -3.569009 5.104646 0.000000 0.000000 0.000000 5.462148 -8.982128 -1.486276 13.419992 2.896276 -0.959078 6.702065 6.389452 -2.137180 0.475395 -2.207919 0.947667 0.000000 0.000000 0.000000 -3.362135 5.712021 -0.175723 -5.954596 1.112145 -0.721537 -5.898028 5.281758 9.002231 0.000000 0.000000 0.000000 -4.773526 5.748878 -0.809235 -2.051778 3.072683 -3.871560 1.424621 -2.174134 1.460753 -13.116140 2.990852 -56.010758 -9.884257 -27.534774 -2.265974 0.000000 0.000000 0.000000 -5.066688 5.243920 -0.477119 3.039985 -4.651146 7.969063 -0.305718 -2.364065 -3.169691 4.226049 39.656826 45.810314 16.538816 21.802358 4.535773 0.000000 0.000000 0.000000 
2.894062 31.616756 0.125845 0.000000 0.000000 0.000000 5.500641 -13.669694 -3.205873 -29.567127 2.604567 16.360289 43.266328 9.312123 -0.660028 -18.305599 6.386458 -11.112734 -2.016681 -1.963835 -3.143438 0.000000 0.000000 0.000000 4.563846 -10.823188 -2.949711 -9.753941 -4.311955 -10.680932 24.563192 -1.179459 -5.569730 -23.190801 -3.015634 16.469386 -5.451937 -3.274427 5.627654 0.000000 0.000000 0.000000 4.745776 -9.060743 -1.662365 13.448707 2.778456 -0.763746 6.385692 6.321647 -1.984640 0.527950 -2.053209 0.949860 0.000000 0.000000 0.000000 -3.801987 5.599491 -0.040448 -5.697991 1.141038 -1.151666 -5.298634 4.323246 9.863834 0.000000 0.000000 0.000000 -5.130589 5.635455 -0.708508 -1.971429 3.437469 -3.801951 1.433640 -2.473810 1.561632 -13.065167 3.030979 -56.412424 -9.352545 -26.867447 -1.673967 0.000000 0.000000 0.000000 -5.339438 5.189484 -0.333045 2.425310 -3.799472 7.638887 -0.534726 -2.677553 -2.985414 3.141475 35.351679 50.054092 16.985016 21.414018 2.852152 0.000000 0.000000 0.000000 
2.848250 31.812048 0.164454 0.000000 0.000000 0.000000 5.028619 -13.423824 -3.110302 -28.265700 3.083782 15.794802 42.002327 8.952600 -0.613086 -17.800477 6.633813 -10.949983 -2.340590 -1.925310 -2.967651 0.000000 0.000000 0.000000 4.109146 -10.144624 -2.931508 -9.007282 -3.850200 -10.708946 22.868988 -0.804155 -5.660983 -22.670018 -3.620959 16.927982 -4.932208 -3.017426 6.053311 0.000000 0.000000 0.000000 4.020628 -8.998208 -1.708891 13.383208 2.552653 -0.674022 6.097832 6.243429 -1.807015 0.446579 -1.794209 0.897379 0.000000 0.000000 0.000000 -4.210931 5.483250 0.103746 -5.253904 1.174886 -1.759152 -4.638706 3.349904 10.671605 0.000000 0.000000 0.000000 -5.493703 5.521877 -0.560701 -1.892469 3.670055 -3.681980 1.555953 -2.716012 1.640909 -13.078019 2.864256 -56.893618 -8.956345 -26.426325 -1.188462 0.000000 0.000000 0.000000 -5.585182 5.123797 -0.156975 1.849326 -3.095553 7.330896 -0.686167 -3.264306 -3.032629 3.005793 31.779825 53.597317 16.823104 21.553577 1.393946 0.000000 0.000000 0.000000 
2.767734 31.999271 0.210678 0.000000 0.000000 0.000000 4.643672 -13.205668 -2.861698 -26.896334 3.622351 15.161709 40.608565 8.571713 -0.570501 -17.156556 6.897627 -10.899076 -2.363752 -1.908734 -2.871731 0.000000 0.000000 0.000000 3.664203 -9.599356 -2.746417 -8.776436 -3.966810 -11.099197 22.123714 -0.590531 -5.656625 -21.553017 -3.858584 17.665586 -5.295763 -2.687952 6.100973 0.000000 0.000000 0.000000 3.445045 -8.830717 -1.644001 13.204001 2.273315 -0.674426 5.825355 6.163917 -1.626543 0.248428 -1.591945 0.765184 0.000000 0.000000 0.000000 -4.590170 5.378379 0.243217 -4.693589 1.247534 -2.533785 -3.921391 2.398004 11.398645 0.000000 0.000000 0.000000 -5.858808 5.415855 -0.397987 -1.817006 3.814581 -3.610652 1.715637 -2.881083 1.600849 -13.060710 2.641956 -57.475659 -8.717919 -26.093857 -0.827396 0.000000 0.000000 0.000000 -5.819096 5.053290 0.025420 1.327964 -2.514057 7.041791 -0.996209 -3.962188 -3.035866 3.535162 28.753362 56.561548 15.918354 21.957904 0.395354 0.000000 0.000000 0.000000 
2.648095 32.173687 0.251385 0.000000 0.000000 0.000000 4.340556 -13.024324 -2.556597 -25.558423 4.190002 14.563377 38.985856 8.186966 -0.526315 -16.466017 7.200703 -10.882586 -2.035125 -1.905592 -2.904152 0.000000 0.000000 0.000000 3.258156 -9.280687 -2.475622 -8.791005 -4.689080 -11.570832 21.728741 -0.643851 -5.484476 -20.108485 -3.817073 18.152148 -5.874814 -2.186250 5.756465 0.000000 0.000000 0.000000 3.052769 -8.600488 -1.512246 12.923848 1.996963 -0.721773 5.569569 6.092996 -1.458483 0.004997 -1.413122 0.656719 0.000000 0.000000 0.000000 -4.952901 5.296560 0.366082 -4.114342 1.382124 -3.417855 -3.164313 1.510529 12.021895 0.000000 0.000000 0.000000 -6.224361 5.331254 -0.246253 -1.743310 3.924202 -3.669278 1.816489 -2.932066 1.421490 -12.948690 2.514395 -58.148713 -8.639389 -25.727258 -0.603548 0.000000 0.000000 0.000000 -6.058085 4.995092 0.194497 0.868563 -2.003987 6.791237 -1.447512 -4.510144 -2.915314 4.554788 26.065868 59.161104 14.284356 22.328437 -0.079974 0.000000 0.000000 0.000000 
2.518378 32.337990 0.302153 0.000000 0.000000 0.000000 4.073486 -12.921638 -2.274455 -24.361159 4.769373 14.159403 37.277185 7.748857 -0.434763 -15.631214 7.544361 -11.028178 -1.535002 -1.909617 -3.029288 0.000000 0.000000 0.000000 2.924512 -9.346173 -2.186792 -8.797898 -5.820744 -11.868011 21.029919 -1.013882 -5.156101 -18.767150 -3.619692 18.056203 -6.106236 -1.491825 5.158078 0.000000 0.000000 0.000000 2.796799 -8.461487 -1.377822 12.592172 1.758655 -0.774811 5.330750 6.038020 -1.307574 -0.147334 -1.332504 0.678409 0.000000 0.000000 0.000000 -5.302878 5.241802 0.472437 -3.597449 1.560507 -4.328106 -2.405839 0.700845 12.532110 0.000000 0.000000 0.000000 -6.572856 5.271088 -0.108852 -1.677206 4.065538 -3.845925 1.901527 -2.838696 1.182257 -12.661269 2.565603 -58.913537 -8.667573 -25.300107 -0.487268 0.000000 0.000000 0.000000 -6.315973 4.952179 0.343047 0.476279 -1.518394 6.594120 -2.010652 -4.761398 -2.700957 5.945225 23.604464 61.557415 12.157958 22.493065 -0.092767 0.000000 0.000000 0.000000 
